<?xml version="1.0" encoding="utf-8" standalone="no"?>
<!DOCTYPE svg PUBLIC "-//W3C//DTD SVG 1.1//EN"
  "http://www.w3.org/Graphics/SVG/1.1/DTD/svg11.dtd">
<svg xmlns:xlink="http://www.w3.org/1999/xlink" width="614.227222pt" height="324.388751pt" viewBox="0 0 614.227222 324.388751" xmlns="http://www.w3.org/2000/svg" version="1.1">
 <metadata>
  <rdf:RDF xmlns:dc="http://purl.org/dc/elements/1.1/" xmlns:cc="http://creativecommons.org/ns#" xmlns:rdf="http://www.w3.org/1999/02/22-rdf-syntax-ns#">
   <cc:Work>
    <dc:type rdf:resource="http://purl.org/dc/dcmitype/StillImage"/>
    <dc:date>2025-01-24T01:45:55.904615</dc:date>
    <dc:format>image/svg+xml</dc:format>
    <dc:creator>
     <cc:Agent>
      <dc:title>Matplotlib v3.10.0, https://matplotlib.org/</dc:title>
     </cc:Agent>
    </dc:creator>
   </cc:Work>
  </rdf:RDF>
 </metadata>
 <defs>
  <style type="text/css">*{stroke-linejoin: round; stroke-linecap: butt}</style>
 </defs>
 <g id="figure_1">
  <g id="patch_1">
   <path d="M 0 324.388751 
L 614.227222 324.388751 
L 614.227222 0 
L 0 0 
z
" style="fill: #ffffff"/>
  </g>
  <g id="axes_1">
   <g id="patch_2">
    <path d="M 76.778403 288.705989 
L 552.804499 288.705989 
L 552.804499 38.92665 
L 76.778403 38.92665 
z
" style="fill: #ffffff"/>
   </g>
   <g id="PathCollection_1">
    <defs>
     <path id="meb899defa3" d="M 0 3 
C 0.795609 3 1.55874 2.683901 2.12132 2.12132 
C 2.683901 1.55874 3 0.795609 3 0 
C 3 -0.795609 2.683901 -1.55874 2.12132 -2.12132 
C 1.55874 -2.683901 0.795609 -3 0 -3 
C -0.795609 -3 -1.55874 -2.683901 -2.12132 -2.12132 
C -2.683901 -1.55874 -3 -0.795609 -3 0 
C -3 0.795609 -2.683901 1.55874 -2.12132 2.12132 
C -1.55874 2.683901 -0.795609 3 0 3 
z
" style="stroke: #1f77b4"/>
    </defs>
    <g clip-path="url(#p1a41fa259c)">
     <use xlink:href="#meb899defa3" x="510.847576" y="52.052089" style="fill: #1f77b4; stroke: #1f77b4"/>
     <use xlink:href="#meb899defa3" x="523.245323" y="54.348314" style="fill: #1f77b4; stroke: #1f77b4"/>
     <use xlink:href="#meb899defa3" x="517.619302" y="65.265152" style="fill: #1f77b4; stroke: #1f77b4"/>
     <use xlink:href="#meb899defa3" x="428.362267" y="98.496179" style="fill: #1f77b4; stroke: #1f77b4"/>
     <use xlink:href="#meb899defa3" x="412.948058" y="101.8953" style="fill: #1f77b4; stroke: #1f77b4"/>
     <use xlink:href="#meb899defa3" x="389.218026" y="93.86883" style="fill: #1f77b4; stroke: #1f77b4"/>
     <use xlink:href="#meb899defa3" x="374.153321" y="106.54274" style="fill: #1f77b4; stroke: #1f77b4"/>
     <use xlink:href="#meb899defa3" x="372.063054" y="111.74136" style="fill: #1f77b4; stroke: #1f77b4"/>
     <use xlink:href="#meb899defa3" x="322.482412" y="123.488568" style="fill: #1f77b4; stroke: #1f77b4"/>
     <use xlink:href="#meb899defa3" x="336.248224" y="134.563119" style="fill: #1f77b4; stroke: #1f77b4"/>
     <use xlink:href="#meb899defa3" x="322.964014" y="162.719864" style="fill: #1f77b4; stroke: #1f77b4"/>
     <use xlink:href="#meb899defa3" x="284.329075" y="119.930673" style="fill: #1f77b4; stroke: #1f77b4"/>
     <use xlink:href="#meb899defa3" x="281.777075" y="120.43382" style="fill: #1f77b4; stroke: #1f77b4"/>
     <use xlink:href="#meb899defa3" x="246.718023" y="143.304572" style="fill: #1f77b4; stroke: #1f77b4"/>
     <use xlink:href="#meb899defa3" x="200.081613" y="140.618374" style="fill: #1f77b4; stroke: #1f77b4"/>
     <use xlink:href="#meb899defa3" x="245.725144" y="129.120567" style="fill: #1f77b4; stroke: #1f77b4"/>
     <use xlink:href="#meb899defa3" x="250.979411" y="115.16337" style="fill: #1f77b4; stroke: #1f77b4"/>
     <use xlink:href="#meb899defa3" x="273.01485" y="81.439733" style="fill: #1f77b4; stroke: #1f77b4"/>
     <use xlink:href="#meb899defa3" x="228.001262" y="61.222756" style="fill: #1f77b4; stroke: #1f77b4"/>
     <use xlink:href="#meb899defa3" x="220.17403" y="50.280256" style="fill: #1f77b4; stroke: #1f77b4"/>
     <use xlink:href="#meb899defa3" x="153.928546" y="75.846581" style="fill: #1f77b4; stroke: #1f77b4"/>
     <use xlink:href="#meb899defa3" x="142.972017" y="85.82862" style="fill: #1f77b4; stroke: #1f77b4"/>
     <use xlink:href="#meb899defa3" x="108.492988" y="89.899226" style="fill: #1f77b4; stroke: #1f77b4"/>
     <use xlink:href="#meb899defa3" x="128.293364" y="143.257528" style="fill: #1f77b4; stroke: #1f77b4"/>
     <use xlink:href="#meb899defa3" x="247.110598" y="202.194239" style="fill: #1f77b4; stroke: #1f77b4"/>
     <use xlink:href="#meb899defa3" x="209.813167" y="248.997937" style="fill: #1f77b4; stroke: #1f77b4"/>
     <use xlink:href="#meb899defa3" x="108.74664" y="253.274687" style="fill: #1f77b4; stroke: #1f77b4"/>
     <use xlink:href="#meb899defa3" x="98.415953" y="257.455802" style="fill: #1f77b4; stroke: #1f77b4"/>
     <use xlink:href="#meb899defa3" x="117.380632" y="258.715143" style="fill: #1f77b4; stroke: #1f77b4"/>
     <use xlink:href="#meb899defa3" x="149.316651" y="271.513343" style="fill: #1f77b4; stroke: #1f77b4"/>
     <use xlink:href="#meb899defa3" x="195.175497" y="276.154489" style="fill: #1f77b4; stroke: #1f77b4"/>
     <use xlink:href="#meb899defa3" x="236.692389" y="277.352382" style="fill: #1f77b4; stroke: #1f77b4"/>
     <use xlink:href="#meb899defa3" x="256.786981" y="266.199957" style="fill: #1f77b4; stroke: #1f77b4"/>
     <use xlink:href="#meb899defa3" x="350.920994" y="249.609796" style="fill: #1f77b4; stroke: #1f77b4"/>
     <use xlink:href="#meb899defa3" x="372.2276" y="267.24614" style="fill: #1f77b4; stroke: #1f77b4"/>
     <use xlink:href="#meb899defa3" x="370.500893" y="275.066475" style="fill: #1f77b4; stroke: #1f77b4"/>
     <use xlink:href="#meb899defa3" x="464.465991" y="273.780685" style="fill: #1f77b4; stroke: #1f77b4"/>
     <use xlink:href="#meb899defa3" x="476.161959" y="269.794959" style="fill: #1f77b4; stroke: #1f77b4"/>
     <use xlink:href="#meb899defa3" x="498.186517" y="254.464454" style="fill: #1f77b4; stroke: #1f77b4"/>
     <use xlink:href="#meb899defa3" x="523.204365" y="251.763309" style="fill: #1f77b4; stroke: #1f77b4"/>
     <use xlink:href="#meb899defa3" x="531.16695" y="217.419434" style="fill: #1f77b4; stroke: #1f77b4"/>
     <use xlink:href="#meb899defa3" x="473.452108" y="214.930419" style="fill: #1f77b4; stroke: #1f77b4"/>
     <use xlink:href="#meb899defa3" x="404.229454" y="221.449666" style="fill: #1f77b4; stroke: #1f77b4"/>
     <use xlink:href="#meb899defa3" x="403.626649" y="213.123448" style="fill: #1f77b4; stroke: #1f77b4"/>
     <use xlink:href="#meb899defa3" x="414.573182" y="187.235882" style="fill: #1f77b4; stroke: #1f77b4"/>
     <use xlink:href="#meb899defa3" x="403.5471" y="185.441838" style="fill: #1f77b4; stroke: #1f77b4"/>
     <use xlink:href="#meb899defa3" x="414.466664" y="167.09553" style="fill: #1f77b4; stroke: #1f77b4"/>
     <use xlink:href="#meb899defa3" x="374.024619" y="159.05465" style="fill: #1f77b4; stroke: #1f77b4"/>
     <use xlink:href="#meb899defa3" x="394.649352" y="129.405733" style="fill: #1f77b4; stroke: #1f77b4"/>
     <use xlink:href="#meb899defa3" x="448.985124" y="124.484704" style="fill: #1f77b4; stroke: #1f77b4"/>
    </g>
   </g>
   <g id="matplotlib.axis_1">
    <g id="xtick_1">
     <g id="line2d_1">
      <defs>
       <path id="ma5e98bb71d" d="M 0 0 
L 0 3.5 
" style="stroke: #000000; stroke-width: 0.8"/>
      </defs>
      <g>
       <use xlink:href="#ma5e98bb71d" x="86.127621" y="288.705989" style="stroke: #000000; stroke-width: 0.8"/>
      </g>
     </g>
     <g id="text_1">
      <!-- 0.0 -->
      <g transform="translate(78.176058 303.304426) scale(0.1 -0.1)">
       <defs>
        <path id="DejaVuSans-30" d="M 2034 4250 
Q 1547 4250 1301 3770 
Q 1056 3291 1056 2328 
Q 1056 1369 1301 889 
Q 1547 409 2034 409 
Q 2525 409 2770 889 
Q 3016 1369 3016 2328 
Q 3016 3291 2770 3770 
Q 2525 4250 2034 4250 
z
M 2034 4750 
Q 2819 4750 3233 4129 
Q 3647 3509 3647 2328 
Q 3647 1150 3233 529 
Q 2819 -91 2034 -91 
Q 1250 -91 836 529 
Q 422 1150 422 2328 
Q 422 3509 836 4129 
Q 1250 4750 2034 4750 
z
" transform="scale(0.015625)"/>
        <path id="DejaVuSans-2e" d="M 684 794 
L 1344 794 
L 1344 0 
L 684 0 
L 684 794 
z
" transform="scale(0.015625)"/>
       </defs>
       <use xlink:href="#DejaVuSans-30"/>
       <use xlink:href="#DejaVuSans-2e" transform="translate(63.623047 0)"/>
       <use xlink:href="#DejaVuSans-30" transform="translate(95.410156 0)"/>
      </g>
     </g>
    </g>
    <g id="xtick_2">
     <g id="line2d_2">
      <g>
       <use xlink:href="#ma5e98bb71d" x="175.177563" y="288.705989" style="stroke: #000000; stroke-width: 0.8"/>
      </g>
     </g>
     <g id="text_2">
      <!-- 0.2 -->
      <g transform="translate(167.226 303.304426) scale(0.1 -0.1)">
       <defs>
        <path id="DejaVuSans-32" d="M 1228 531 
L 3431 531 
L 3431 0 
L 469 0 
L 469 531 
Q 828 903 1448 1529 
Q 2069 2156 2228 2338 
Q 2531 2678 2651 2914 
Q 2772 3150 2772 3378 
Q 2772 3750 2511 3984 
Q 2250 4219 1831 4219 
Q 1534 4219 1204 4116 
Q 875 4013 500 3803 
L 500 4441 
Q 881 4594 1212 4672 
Q 1544 4750 1819 4750 
Q 2544 4750 2975 4387 
Q 3406 4025 3406 3419 
Q 3406 3131 3298 2873 
Q 3191 2616 2906 2266 
Q 2828 2175 2409 1742 
Q 1991 1309 1228 531 
z
" transform="scale(0.015625)"/>
       </defs>
       <use xlink:href="#DejaVuSans-30"/>
       <use xlink:href="#DejaVuSans-2e" transform="translate(63.623047 0)"/>
       <use xlink:href="#DejaVuSans-32" transform="translate(95.410156 0)"/>
      </g>
     </g>
    </g>
    <g id="xtick_3">
     <g id="line2d_3">
      <g>
       <use xlink:href="#ma5e98bb71d" x="264.227505" y="288.705989" style="stroke: #000000; stroke-width: 0.8"/>
      </g>
     </g>
     <g id="text_3">
      <!-- 0.4 -->
      <g transform="translate(256.275942 303.304426) scale(0.1 -0.1)">
       <defs>
        <path id="DejaVuSans-34" d="M 2419 4116 
L 825 1625 
L 2419 1625 
L 2419 4116 
z
M 2253 4666 
L 3047 4666 
L 3047 1625 
L 3713 1625 
L 3713 1100 
L 3047 1100 
L 3047 0 
L 2419 0 
L 2419 1100 
L 313 1100 
L 313 1709 
L 2253 4666 
z
" transform="scale(0.015625)"/>
       </defs>
       <use xlink:href="#DejaVuSans-30"/>
       <use xlink:href="#DejaVuSans-2e" transform="translate(63.623047 0)"/>
       <use xlink:href="#DejaVuSans-34" transform="translate(95.410156 0)"/>
      </g>
     </g>
    </g>
    <g id="xtick_4">
     <g id="line2d_4">
      <g>
       <use xlink:href="#ma5e98bb71d" x="353.277447" y="288.705989" style="stroke: #000000; stroke-width: 0.8"/>
      </g>
     </g>
     <g id="text_4">
      <!-- 0.6 -->
      <g transform="translate(345.325884 303.304426) scale(0.1 -0.1)">
       <defs>
        <path id="DejaVuSans-36" d="M 2113 2584 
Q 1688 2584 1439 2293 
Q 1191 2003 1191 1497 
Q 1191 994 1439 701 
Q 1688 409 2113 409 
Q 2538 409 2786 701 
Q 3034 994 3034 1497 
Q 3034 2003 2786 2293 
Q 2538 2584 2113 2584 
z
M 3366 4563 
L 3366 3988 
Q 3128 4100 2886 4159 
Q 2644 4219 2406 4219 
Q 1781 4219 1451 3797 
Q 1122 3375 1075 2522 
Q 1259 2794 1537 2939 
Q 1816 3084 2150 3084 
Q 2853 3084 3261 2657 
Q 3669 2231 3669 1497 
Q 3669 778 3244 343 
Q 2819 -91 2113 -91 
Q 1303 -91 875 529 
Q 447 1150 447 2328 
Q 447 3434 972 4092 
Q 1497 4750 2381 4750 
Q 2619 4750 2861 4703 
Q 3103 4656 3366 4563 
z
" transform="scale(0.015625)"/>
       </defs>
       <use xlink:href="#DejaVuSans-30"/>
       <use xlink:href="#DejaVuSans-2e" transform="translate(63.623047 0)"/>
       <use xlink:href="#DejaVuSans-36" transform="translate(95.410156 0)"/>
      </g>
     </g>
    </g>
    <g id="xtick_5">
     <g id="line2d_5">
      <g>
       <use xlink:href="#ma5e98bb71d" x="442.327389" y="288.705989" style="stroke: #000000; stroke-width: 0.8"/>
      </g>
     </g>
     <g id="text_5">
      <!-- 0.8 -->
      <g transform="translate(434.375826 303.304426) scale(0.1 -0.1)">
       <defs>
        <path id="DejaVuSans-38" d="M 2034 2216 
Q 1584 2216 1326 1975 
Q 1069 1734 1069 1313 
Q 1069 891 1326 650 
Q 1584 409 2034 409 
Q 2484 409 2743 651 
Q 3003 894 3003 1313 
Q 3003 1734 2745 1975 
Q 2488 2216 2034 2216 
z
M 1403 2484 
Q 997 2584 770 2862 
Q 544 3141 544 3541 
Q 544 4100 942 4425 
Q 1341 4750 2034 4750 
Q 2731 4750 3128 4425 
Q 3525 4100 3525 3541 
Q 3525 3141 3298 2862 
Q 3072 2584 2669 2484 
Q 3125 2378 3379 2068 
Q 3634 1759 3634 1313 
Q 3634 634 3220 271 
Q 2806 -91 2034 -91 
Q 1263 -91 848 271 
Q 434 634 434 1313 
Q 434 1759 690 2068 
Q 947 2378 1403 2484 
z
M 1172 3481 
Q 1172 3119 1398 2916 
Q 1625 2713 2034 2713 
Q 2441 2713 2670 2916 
Q 2900 3119 2900 3481 
Q 2900 3844 2670 4047 
Q 2441 4250 2034 4250 
Q 1625 4250 1398 4047 
Q 1172 3844 1172 3481 
z
" transform="scale(0.015625)"/>
       </defs>
       <use xlink:href="#DejaVuSans-30"/>
       <use xlink:href="#DejaVuSans-2e" transform="translate(63.623047 0)"/>
       <use xlink:href="#DejaVuSans-38" transform="translate(95.410156 0)"/>
      </g>
     </g>
    </g>
    <g id="xtick_6">
     <g id="line2d_6">
      <g>
       <use xlink:href="#ma5e98bb71d" x="531.377331" y="288.705989" style="stroke: #000000; stroke-width: 0.8"/>
      </g>
     </g>
     <g id="text_6">
      <!-- 1.0 -->
      <g transform="translate(523.425768 303.304426) scale(0.1 -0.1)">
       <defs>
        <path id="DejaVuSans-31" d="M 794 531 
L 1825 531 
L 1825 4091 
L 703 3866 
L 703 4441 
L 1819 4666 
L 2450 4666 
L 2450 531 
L 3481 531 
L 3481 0 
L 794 0 
L 794 531 
z
" transform="scale(0.015625)"/>
       </defs>
       <use xlink:href="#DejaVuSans-31"/>
       <use xlink:href="#DejaVuSans-2e" transform="translate(63.623047 0)"/>
       <use xlink:href="#DejaVuSans-30" transform="translate(95.410156 0)"/>
      </g>
     </g>
    </g>
   </g>
   <g id="matplotlib.axis_2">
    <g id="ytick_1">
     <g id="line2d_7">
      <defs>
       <path id="m84f0e87422" d="M 0 0 
L -3.5 0 
" style="stroke: #000000; stroke-width: 0.8"/>
      </defs>
      <g>
       <use xlink:href="#m84f0e87422" x="76.778403" y="279.66459" style="stroke: #000000; stroke-width: 0.8"/>
      </g>
     </g>
     <g id="text_7">
      <!-- 0.0 -->
      <g transform="translate(53.875278 283.463809) scale(0.1 -0.1)">
       <use xlink:href="#DejaVuSans-30"/>
       <use xlink:href="#DejaVuSans-2e" transform="translate(63.623047 0)"/>
       <use xlink:href="#DejaVuSans-30" transform="translate(95.410156 0)"/>
      </g>
     </g>
    </g>
    <g id="ytick_2">
     <g id="line2d_8">
      <g>
       <use xlink:href="#m84f0e87422" x="76.778403" y="232.984909" style="stroke: #000000; stroke-width: 0.8"/>
      </g>
     </g>
     <g id="text_8">
      <!-- 0.2 -->
      <g transform="translate(53.875278 236.784128) scale(0.1 -0.1)">
       <use xlink:href="#DejaVuSans-30"/>
       <use xlink:href="#DejaVuSans-2e" transform="translate(63.623047 0)"/>
       <use xlink:href="#DejaVuSans-32" transform="translate(95.410156 0)"/>
      </g>
     </g>
    </g>
    <g id="ytick_3">
     <g id="line2d_9">
      <g>
       <use xlink:href="#m84f0e87422" x="76.778403" y="186.305228" style="stroke: #000000; stroke-width: 0.8"/>
      </g>
     </g>
     <g id="text_9">
      <!-- 0.4 -->
      <g transform="translate(53.875278 190.104447) scale(0.1 -0.1)">
       <use xlink:href="#DejaVuSans-30"/>
       <use xlink:href="#DejaVuSans-2e" transform="translate(63.623047 0)"/>
       <use xlink:href="#DejaVuSans-34" transform="translate(95.410156 0)"/>
      </g>
     </g>
    </g>
    <g id="ytick_4">
     <g id="line2d_10">
      <g>
       <use xlink:href="#m84f0e87422" x="76.778403" y="139.625547" style="stroke: #000000; stroke-width: 0.8"/>
      </g>
     </g>
     <g id="text_10">
      <!-- 0.6 -->
      <g transform="translate(53.875278 143.424766) scale(0.1 -0.1)">
       <use xlink:href="#DejaVuSans-30"/>
       <use xlink:href="#DejaVuSans-2e" transform="translate(63.623047 0)"/>
       <use xlink:href="#DejaVuSans-36" transform="translate(95.410156 0)"/>
      </g>
     </g>
    </g>
    <g id="ytick_5">
     <g id="line2d_11">
      <g>
       <use xlink:href="#m84f0e87422" x="76.778403" y="92.945866" style="stroke: #000000; stroke-width: 0.8"/>
      </g>
     </g>
     <g id="text_11">
      <!-- 0.8 -->
      <g transform="translate(53.875278 96.745085) scale(0.1 -0.1)">
       <use xlink:href="#DejaVuSans-30"/>
       <use xlink:href="#DejaVuSans-2e" transform="translate(63.623047 0)"/>
       <use xlink:href="#DejaVuSans-38" transform="translate(95.410156 0)"/>
      </g>
     </g>
    </g>
    <g id="ytick_6">
     <g id="line2d_12">
      <g>
       <use xlink:href="#m84f0e87422" x="76.778403" y="46.266185" style="stroke: #000000; stroke-width: 0.8"/>
      </g>
     </g>
     <g id="text_12">
      <!-- 1.0 -->
      <g transform="translate(53.875278 50.065403) scale(0.1 -0.1)">
       <use xlink:href="#DejaVuSans-31"/>
       <use xlink:href="#DejaVuSans-2e" transform="translate(63.623047 0)"/>
       <use xlink:href="#DejaVuSans-30" transform="translate(95.410156 0)"/>
      </g>
     </g>
    </g>
   </g>
   <g id="line2d_13">
    <path d="M 510.847576 52.052089 
L 523.245323 54.348314 
L 517.619302 65.265152 
L 428.362267 98.496179 
L 412.948058 101.8953 
L 389.218026 93.86883 
L 374.153321 106.54274 
L 372.063054 111.74136 
L 322.482412 123.488568 
L 336.248224 134.563119 
L 322.964014 162.719864 
L 284.329075 119.930673 
L 281.777075 120.43382 
L 246.718023 143.304572 
L 200.081613 140.618374 
L 245.725144 129.120567 
L 250.979411 115.16337 
L 273.01485 81.439733 
L 228.001262 61.222756 
L 220.17403 50.280256 
L 153.928546 75.846581 
L 142.972017 85.82862 
L 108.492988 89.899226 
L 128.293364 143.257528 
L 247.110598 202.194239 
L 209.813167 248.997937 
L 108.74664 253.274687 
L 98.415953 257.455802 
L 117.380632 258.715143 
L 149.316651 271.513343 
L 195.175497 276.154489 
L 236.692389 277.352382 
L 256.786981 266.199957 
L 350.920994 249.609796 
L 372.2276 267.24614 
L 370.500893 275.066475 
L 464.465991 273.780685 
L 476.161959 269.794959 
L 498.186517 254.464454 
L 523.204365 251.763309 
L 531.16695 217.419434 
L 473.452108 214.930419 
L 404.229454 221.449666 
L 403.626649 213.123448 
L 414.573182 187.235882 
L 403.5471 185.441838 
L 414.466664 167.09553 
L 374.024619 159.05465 
L 394.649352 129.405733 
L 448.985124 124.484704 
" clip-path="url(#p1a41fa259c)" style="fill: none; stroke: #000000; stroke-width: 1.5; stroke-linecap: square"/>
   </g>
   <g id="patch_3">
    <path d="M 76.778403 288.705989 
L 76.778403 38.92665 
" style="fill: none; stroke: #000000; stroke-width: 0.8; stroke-linejoin: miter; stroke-linecap: square"/>
   </g>
   <g id="patch_4">
    <path d="M 552.804499 288.705989 
L 552.804499 38.92665 
" style="fill: none; stroke: #000000; stroke-width: 0.8; stroke-linejoin: miter; stroke-linecap: square"/>
   </g>
   <g id="patch_5">
    <path d="M 76.778403 288.705989 
L 552.804499 288.705989 
" style="fill: none; stroke: #000000; stroke-width: 0.8; stroke-linejoin: miter; stroke-linecap: square"/>
   </g>
   <g id="patch_6">
    <path d="M 76.778403 38.92665 
L 552.804499 38.92665 
" style="fill: none; stroke: #000000; stroke-width: 0.8; stroke-linejoin: miter; stroke-linecap: square"/>
   </g>
   <g id="text_13">
    <!-- Miglior cammino trovato -->
    <g transform="translate(241.441451 32.92665) scale(0.12 -0.12)">
     <defs>
      <path id="DejaVuSans-4d" d="M 628 4666 
L 1569 4666 
L 2759 1491 
L 3956 4666 
L 4897 4666 
L 4897 0 
L 4281 0 
L 4281 4097 
L 3078 897 
L 2444 897 
L 1241 4097 
L 1241 0 
L 628 0 
L 628 4666 
z
" transform="scale(0.015625)"/>
      <path id="DejaVuSans-69" d="M 603 3500 
L 1178 3500 
L 1178 0 
L 603 0 
L 603 3500 
z
M 603 4863 
L 1178 4863 
L 1178 4134 
L 603 4134 
L 603 4863 
z
" transform="scale(0.015625)"/>
      <path id="DejaVuSans-67" d="M 2906 1791 
Q 2906 2416 2648 2759 
Q 2391 3103 1925 3103 
Q 1463 3103 1205 2759 
Q 947 2416 947 1791 
Q 947 1169 1205 825 
Q 1463 481 1925 481 
Q 2391 481 2648 825 
Q 2906 1169 2906 1791 
z
M 3481 434 
Q 3481 -459 3084 -895 
Q 2688 -1331 1869 -1331 
Q 1566 -1331 1297 -1286 
Q 1028 -1241 775 -1147 
L 775 -588 
Q 1028 -725 1275 -790 
Q 1522 -856 1778 -856 
Q 2344 -856 2625 -561 
Q 2906 -266 2906 331 
L 2906 616 
Q 2728 306 2450 153 
Q 2172 0 1784 0 
Q 1141 0 747 490 
Q 353 981 353 1791 
Q 353 2603 747 3093 
Q 1141 3584 1784 3584 
Q 2172 3584 2450 3431 
Q 2728 3278 2906 2969 
L 2906 3500 
L 3481 3500 
L 3481 434 
z
" transform="scale(0.015625)"/>
      <path id="DejaVuSans-6c" d="M 603 4863 
L 1178 4863 
L 1178 0 
L 603 0 
L 603 4863 
z
" transform="scale(0.015625)"/>
      <path id="DejaVuSans-6f" d="M 1959 3097 
Q 1497 3097 1228 2736 
Q 959 2375 959 1747 
Q 959 1119 1226 758 
Q 1494 397 1959 397 
Q 2419 397 2687 759 
Q 2956 1122 2956 1747 
Q 2956 2369 2687 2733 
Q 2419 3097 1959 3097 
z
M 1959 3584 
Q 2709 3584 3137 3096 
Q 3566 2609 3566 1747 
Q 3566 888 3137 398 
Q 2709 -91 1959 -91 
Q 1206 -91 779 398 
Q 353 888 353 1747 
Q 353 2609 779 3096 
Q 1206 3584 1959 3584 
z
" transform="scale(0.015625)"/>
      <path id="DejaVuSans-72" d="M 2631 2963 
Q 2534 3019 2420 3045 
Q 2306 3072 2169 3072 
Q 1681 3072 1420 2755 
Q 1159 2438 1159 1844 
L 1159 0 
L 581 0 
L 581 3500 
L 1159 3500 
L 1159 2956 
Q 1341 3275 1631 3429 
Q 1922 3584 2338 3584 
Q 2397 3584 2469 3576 
Q 2541 3569 2628 3553 
L 2631 2963 
z
" transform="scale(0.015625)"/>
      <path id="DejaVuSans-20" transform="scale(0.015625)"/>
      <path id="DejaVuSans-63" d="M 3122 3366 
L 3122 2828 
Q 2878 2963 2633 3030 
Q 2388 3097 2138 3097 
Q 1578 3097 1268 2742 
Q 959 2388 959 1747 
Q 959 1106 1268 751 
Q 1578 397 2138 397 
Q 2388 397 2633 464 
Q 2878 531 3122 666 
L 3122 134 
Q 2881 22 2623 -34 
Q 2366 -91 2075 -91 
Q 1284 -91 818 406 
Q 353 903 353 1747 
Q 353 2603 823 3093 
Q 1294 3584 2113 3584 
Q 2378 3584 2631 3529 
Q 2884 3475 3122 3366 
z
" transform="scale(0.015625)"/>
      <path id="DejaVuSans-61" d="M 2194 1759 
Q 1497 1759 1228 1600 
Q 959 1441 959 1056 
Q 959 750 1161 570 
Q 1363 391 1709 391 
Q 2188 391 2477 730 
Q 2766 1069 2766 1631 
L 2766 1759 
L 2194 1759 
z
M 3341 1997 
L 3341 0 
L 2766 0 
L 2766 531 
Q 2569 213 2275 61 
Q 1981 -91 1556 -91 
Q 1019 -91 701 211 
Q 384 513 384 1019 
Q 384 1609 779 1909 
Q 1175 2209 1959 2209 
L 2766 2209 
L 2766 2266 
Q 2766 2663 2505 2880 
Q 2244 3097 1772 3097 
Q 1472 3097 1187 3025 
Q 903 2953 641 2809 
L 641 3341 
Q 956 3463 1253 3523 
Q 1550 3584 1831 3584 
Q 2591 3584 2966 3190 
Q 3341 2797 3341 1997 
z
" transform="scale(0.015625)"/>
      <path id="DejaVuSans-6d" d="M 3328 2828 
Q 3544 3216 3844 3400 
Q 4144 3584 4550 3584 
Q 5097 3584 5394 3201 
Q 5691 2819 5691 2113 
L 5691 0 
L 5113 0 
L 5113 2094 
Q 5113 2597 4934 2840 
Q 4756 3084 4391 3084 
Q 3944 3084 3684 2787 
Q 3425 2491 3425 1978 
L 3425 0 
L 2847 0 
L 2847 2094 
Q 2847 2600 2669 2842 
Q 2491 3084 2119 3084 
Q 1678 3084 1418 2786 
Q 1159 2488 1159 1978 
L 1159 0 
L 581 0 
L 581 3500 
L 1159 3500 
L 1159 2956 
Q 1356 3278 1631 3431 
Q 1906 3584 2284 3584 
Q 2666 3584 2933 3390 
Q 3200 3197 3328 2828 
z
" transform="scale(0.015625)"/>
      <path id="DejaVuSans-6e" d="M 3513 2113 
L 3513 0 
L 2938 0 
L 2938 2094 
Q 2938 2591 2744 2837 
Q 2550 3084 2163 3084 
Q 1697 3084 1428 2787 
Q 1159 2491 1159 1978 
L 1159 0 
L 581 0 
L 581 3500 
L 1159 3500 
L 1159 2956 
Q 1366 3272 1645 3428 
Q 1925 3584 2291 3584 
Q 2894 3584 3203 3211 
Q 3513 2838 3513 2113 
z
" transform="scale(0.015625)"/>
      <path id="DejaVuSans-74" d="M 1172 4494 
L 1172 3500 
L 2356 3500 
L 2356 3053 
L 1172 3053 
L 1172 1153 
Q 1172 725 1289 603 
Q 1406 481 1766 481 
L 2356 481 
L 2356 0 
L 1766 0 
Q 1100 0 847 248 
Q 594 497 594 1153 
L 594 3053 
L 172 3053 
L 172 3500 
L 594 3500 
L 594 4494 
L 1172 4494 
z
" transform="scale(0.015625)"/>
      <path id="DejaVuSans-76" d="M 191 3500 
L 800 3500 
L 1894 563 
L 2988 3500 
L 3597 3500 
L 2284 0 
L 1503 0 
L 191 3500 
z
" transform="scale(0.015625)"/>
     </defs>
     <use xlink:href="#DejaVuSans-4d"/>
     <use xlink:href="#DejaVuSans-69" transform="translate(86.279297 0)"/>
     <use xlink:href="#DejaVuSans-67" transform="translate(114.0625 0)"/>
     <use xlink:href="#DejaVuSans-6c" transform="translate(177.539062 0)"/>
     <use xlink:href="#DejaVuSans-69" transform="translate(205.322266 0)"/>
     <use xlink:href="#DejaVuSans-6f" transform="translate(233.105469 0)"/>
     <use xlink:href="#DejaVuSans-72" transform="translate(294.287109 0)"/>
     <use xlink:href="#DejaVuSans-20" transform="translate(335.400391 0)"/>
     <use xlink:href="#DejaVuSans-63" transform="translate(367.1875 0)"/>
     <use xlink:href="#DejaVuSans-61" transform="translate(422.167969 0)"/>
     <use xlink:href="#DejaVuSans-6d" transform="translate(483.447266 0)"/>
     <use xlink:href="#DejaVuSans-6d" transform="translate(580.859375 0)"/>
     <use xlink:href="#DejaVuSans-69" transform="translate(678.271484 0)"/>
     <use xlink:href="#DejaVuSans-6e" transform="translate(706.054688 0)"/>
     <use xlink:href="#DejaVuSans-6f" transform="translate(769.433594 0)"/>
     <use xlink:href="#DejaVuSans-20" transform="translate(830.615234 0)"/>
     <use xlink:href="#DejaVuSans-74" transform="translate(862.402344 0)"/>
     <use xlink:href="#DejaVuSans-72" transform="translate(901.611328 0)"/>
     <use xlink:href="#DejaVuSans-6f" transform="translate(940.474609 0)"/>
     <use xlink:href="#DejaVuSans-76" transform="translate(1001.65625 0)"/>
     <use xlink:href="#DejaVuSans-61" transform="translate(1060.835938 0)"/>
     <use xlink:href="#DejaVuSans-74" transform="translate(1122.115234 0)"/>
     <use xlink:href="#DejaVuSans-6f" transform="translate(1161.324219 0)"/>
    </g>
   </g>
  </g>
 </g>
 <defs>
  <clipPath id="p1a41fa259c">
   <rect x="76.778403" y="38.92665" width="476.026097" height="249.779339"/>
  </clipPath>
 </defs>
</svg>
