<?xml version="1.0" encoding="utf-8" standalone="no"?>
<!DOCTYPE svg PUBLIC "-//W3C//DTD SVG 1.1//EN"
  "http://www.w3.org/Graphics/SVG/1.1/DTD/svg11.dtd">
<svg xmlns:xlink="http://www.w3.org/1999/xlink" width="614.586069pt" height="324.578268pt" viewBox="0 0 614.586069 324.578268" xmlns="http://www.w3.org/2000/svg" version="1.1">
 <metadata>
  <rdf:RDF xmlns:dc="http://purl.org/dc/elements/1.1/" xmlns:cc="http://creativecommons.org/ns#" xmlns:rdf="http://www.w3.org/1999/02/22-rdf-syntax-ns#">
   <cc:Work>
    <dc:type rdf:resource="http://purl.org/dc/dcmitype/StillImage"/>
    <dc:date>2025-02-15T22:19:16.242185</dc:date>
    <dc:format>image/svg+xml</dc:format>
    <dc:creator>
     <cc:Agent>
      <dc:title>Matplotlib v3.10.0, https://matplotlib.org/</dc:title>
     </cc:Agent>
    </dc:creator>
   </cc:Work>
  </rdf:RDF>
 </metadata>
 <defs>
  <style type="text/css">*{stroke-linejoin: round; stroke-linecap: butt}</style>
 </defs>
 <g id="figure_1">
  <g id="patch_1">
   <path d="M 0 324.578268 
L 614.586069 324.578268 
L 614.586069 0 
L 0 0 
z
" style="fill: #ffffff"/>
  </g>
  <g id="axes_1">
   <g id="patch_2">
    <path d="M 9.218791 315.922847 
L 605.367278 315.922847 
L 605.367278 8.65542 
L 9.218791 8.65542 
z
" style="fill: #ffffff"/>
   </g>
   <g id="PathCollection_1">
    <defs>
     <path id="mb821c38f4c" d="M 0 3 
C 0.795609 3 1.55874 2.683901 2.12132 2.12132 
C 2.683901 1.55874 3 0.795609 3 0 
C 3 -0.795609 2.683901 -1.55874 2.12132 -2.12132 
C 1.55874 -2.683901 0.795609 -3 0 -3 
C -0.795609 -3 -1.55874 -2.683901 -2.12132 -2.12132 
C -2.683901 -1.55874 -3 -0.795609 -3 0 
C -3 0.795609 -2.683901 1.55874 -2.12132 2.12132 
C -1.55874 2.683901 -0.795609 3 0 3 
z
" style="stroke: #1f77b4"/>
    </defs>
    <g clip-path="url(#pf38e368901)">
     <use xlink:href="#mb821c38f4c" x="476.508468" y="138.491281" style="fill: #1f77b4; stroke: #1f77b4"/>
     <use xlink:href="#mb821c38f4c" x="474.958743" y="138.528182" style="fill: #1f77b4; stroke: #1f77b4"/>
     <use xlink:href="#mb821c38f4c" x="471.522106" y="149.761221" style="fill: #1f77b4; stroke: #1f77b4"/>
     <use xlink:href="#mb821c38f4c" x="454.830657" y="185.944298" style="fill: #1f77b4; stroke: #1f77b4"/>
     <use xlink:href="#mb821c38f4c" x="398.252375" y="186.864712" style="fill: #1f77b4; stroke: #1f77b4"/>
     <use xlink:href="#mb821c38f4c" x="344.943539" y="172.007322" style="fill: #1f77b4; stroke: #1f77b4"/>
     <use xlink:href="#mb821c38f4c" x="330.798412" y="165.225913" style="fill: #1f77b4; stroke: #1f77b4"/>
     <use xlink:href="#mb821c38f4c" x="316.118094" y="152.488444" style="fill: #1f77b4; stroke: #1f77b4"/>
     <use xlink:href="#mb821c38f4c" x="348.118629" y="147.836217" style="fill: #1f77b4; stroke: #1f77b4"/>
     <use xlink:href="#mb821c38f4c" x="358.696303" y="140.984593" style="fill: #1f77b4; stroke: #1f77b4"/>
     <use xlink:href="#mb821c38f4c" x="378.545214" y="150.703974" style="fill: #1f77b4; stroke: #1f77b4"/>
     <use xlink:href="#mb821c38f4c" x="372.857291" y="138.447152" style="fill: #1f77b4; stroke: #1f77b4"/>
     <use xlink:href="#mb821c38f4c" x="341.837366" y="120.771822" style="fill: #1f77b4; stroke: #1f77b4"/>
     <use xlink:href="#mb821c38f4c" x="297.451853" y="127.182805" style="fill: #1f77b4; stroke: #1f77b4"/>
     <use xlink:href="#mb821c38f4c" x="229.752861" y="102.351091" style="fill: #1f77b4; stroke: #1f77b4"/>
     <use xlink:href="#mb821c38f4c" x="189.63166" y="91.001018" style="fill: #1f77b4; stroke: #1f77b4"/>
     <use xlink:href="#mb821c38f4c" x="132.416152" y="57.440406" style="fill: #1f77b4; stroke: #1f77b4"/>
     <use xlink:href="#mb821c38f4c" x="173.60709" y="37.477678" style="fill: #1f77b4; stroke: #1f77b4"/>
     <use xlink:href="#mb821c38f4c" x="215.821098" y="22.622122" style="fill: #1f77b4; stroke: #1f77b4"/>
     <use xlink:href="#mb821c38f4c" x="241.079897" y="48.808133" style="fill: #1f77b4; stroke: #1f77b4"/>
     <use xlink:href="#mb821c38f4c" x="299.417739" y="76.163956" style="fill: #1f77b4; stroke: #1f77b4"/>
     <use xlink:href="#mb821c38f4c" x="360.062156" y="32.158652" style="fill: #1f77b4; stroke: #1f77b4"/>
     <use xlink:href="#mb821c38f4c" x="390.892155" y="42.605911" style="fill: #1f77b4; stroke: #1f77b4"/>
     <use xlink:href="#mb821c38f4c" x="392.145851" y="44.114572" style="fill: #1f77b4; stroke: #1f77b4"/>
     <use xlink:href="#mb821c38f4c" x="403.468439" y="39.81124" style="fill: #1f77b4; stroke: #1f77b4"/>
     <use xlink:href="#mb821c38f4c" x="434.659086" y="53.719075" style="fill: #1f77b4; stroke: #1f77b4"/>
     <use xlink:href="#mb821c38f4c" x="448.028637" y="66.361103" style="fill: #1f77b4; stroke: #1f77b4"/>
     <use xlink:href="#mb821c38f4c" x="539.101887" y="51.975191" style="fill: #1f77b4; stroke: #1f77b4"/>
     <use xlink:href="#mb821c38f4c" x="537.401133" y="104.669487" style="fill: #1f77b4; stroke: #1f77b4"/>
     <use xlink:href="#mb821c38f4c" x="578.26962" y="140.243635" style="fill: #1f77b4; stroke: #1f77b4"/>
     <use xlink:href="#mb821c38f4c" x="553.250364" y="160.096569" style="fill: #1f77b4; stroke: #1f77b4"/>
     <use xlink:href="#mb821c38f4c" x="535.141363" y="167.141042" style="fill: #1f77b4; stroke: #1f77b4"/>
     <use xlink:href="#mb821c38f4c" x="536.974221" y="186.617371" style="fill: #1f77b4; stroke: #1f77b4"/>
     <use xlink:href="#mb821c38f4c" x="515.205456" y="211.961768" style="fill: #1f77b4; stroke: #1f77b4"/>
     <use xlink:href="#mb821c38f4c" x="506.186019" y="237.990893" style="fill: #1f77b4; stroke: #1f77b4"/>
     <use xlink:href="#mb821c38f4c" x="575.080033" y="244.781277" style="fill: #1f77b4; stroke: #1f77b4"/>
     <use xlink:href="#mb821c38f4c" x="491.753247" y="300.306175" style="fill: #1f77b4; stroke: #1f77b4"/>
     <use xlink:href="#mb821c38f4c" x="378.483148" y="279.079607" style="fill: #1f77b4; stroke: #1f77b4"/>
     <use xlink:href="#mb821c38f4c" x="321.845455" y="286.975691" style="fill: #1f77b4; stroke: #1f77b4"/>
     <use xlink:href="#mb821c38f4c" x="300.184435" y="301.956146" style="fill: #1f77b4; stroke: #1f77b4"/>
     <use xlink:href="#mb821c38f4c" x="276.041773" y="250.237033" style="fill: #1f77b4; stroke: #1f77b4"/>
     <use xlink:href="#mb821c38f4c" x="161.090777" y="243.743844" style="fill: #1f77b4; stroke: #1f77b4"/>
     <use xlink:href="#mb821c38f4c" x="174.37142" y="240.106968" style="fill: #1f77b4; stroke: #1f77b4"/>
     <use xlink:href="#mb821c38f4c" x="83.023807" y="259.850544" style="fill: #1f77b4; stroke: #1f77b4"/>
     <use xlink:href="#mb821c38f4c" x="102.684353" y="190.26916" style="fill: #1f77b4; stroke: #1f77b4"/>
     <use xlink:href="#mb821c38f4c" x="91.46805" y="157.84831" style="fill: #1f77b4; stroke: #1f77b4"/>
     <use xlink:href="#mb821c38f4c" x="36.31645" y="109.112755" style="fill: #1f77b4; stroke: #1f77b4"/>
     <use xlink:href="#mb821c38f4c" x="128.468947" y="127.731211" style="fill: #1f77b4; stroke: #1f77b4"/>
     <use xlink:href="#mb821c38f4c" x="197.047433" y="158.537391" style="fill: #1f77b4; stroke: #1f77b4"/>
     <use xlink:href="#mb821c38f4c" x="262.249235" y="180.869764" style="fill: #1f77b4; stroke: #1f77b4"/>
    </g>
   </g>
   <g id="matplotlib.axis_1"/>
   <g id="matplotlib.axis_2"/>
   <g id="line2d_1">
    <path d="M 476.508468 138.491281 
L 474.958743 138.528182 
L 471.522106 149.761221 
L 454.830657 185.944298 
L 398.252375 186.864712 
L 344.943539 172.007322 
L 330.798412 165.225913 
L 316.118094 152.488444 
L 348.118629 147.836217 
L 358.696303 140.984593 
L 378.545214 150.703974 
L 372.857291 138.447152 
L 341.837366 120.771822 
L 297.451853 127.182805 
L 229.752861 102.351091 
L 189.63166 91.001018 
L 132.416152 57.440406 
L 173.60709 37.477678 
L 215.821098 22.622122 
L 241.079897 48.808133 
L 299.417739 76.163956 
L 360.062156 32.158652 
L 390.892155 42.605911 
L 392.145851 44.114572 
L 403.468439 39.81124 
L 434.659086 53.719075 
L 448.028637 66.361103 
L 539.101887 51.975191 
L 537.401133 104.669487 
L 578.26962 140.243635 
L 553.250364 160.096569 
L 535.141363 167.141042 
L 536.974221 186.617371 
L 515.205456 211.961768 
L 506.186019 237.990893 
L 575.080033 244.781277 
L 491.753247 300.306175 
L 378.483148 279.079607 
L 321.845455 286.975691 
L 300.184435 301.956146 
L 276.041773 250.237033 
L 161.090777 243.743844 
L 174.37142 240.106968 
L 83.023807 259.850544 
L 102.684353 190.26916 
L 91.46805 157.84831 
L 36.31645 109.112755 
L 128.468947 127.731211 
L 197.047433 158.537391 
L 262.249235 180.869764 
" clip-path="url(#pf38e368901)" style="fill: none; stroke: #000000; stroke-width: 1.5; stroke-linecap: square"/>
   </g>
   <g id="patch_3">
    <path d="M 9.218791 315.922847 
L 9.218791 8.65542 
" style="fill: none; stroke: #000000; stroke-width: 0.8; stroke-linejoin: miter; stroke-linecap: square"/>
   </g>
   <g id="patch_4">
    <path d="M 605.367278 315.922847 
L 605.367278 8.65542 
" style="fill: none; stroke: #000000; stroke-width: 0.8; stroke-linejoin: miter; stroke-linecap: square"/>
   </g>
   <g id="patch_5">
    <path d="M 9.218791 315.922847 
L 605.367278 315.922847 
" style="fill: none; stroke: #000000; stroke-width: 0.8; stroke-linejoin: miter; stroke-linecap: square"/>
   </g>
   <g id="patch_6">
    <path d="M 9.218791 8.65542 
L 605.367278 8.65542 
" style="fill: none; stroke: #000000; stroke-width: 0.8; stroke-linejoin: miter; stroke-linecap: square"/>
   </g>
   <g id="legend_1">
    <g id="patch_7">
     <path d="M 20.418791 68.42542 
L 120.021291 68.42542 
Q 123.221291 68.42542 123.221291 65.22542 
L 123.221291 19.85542 
Q 123.221291 16.65542 120.021291 16.65542 
L 20.418791 16.65542 
Q 17.218791 16.65542 17.218791 19.85542 
L 17.218791 65.22542 
Q 17.218791 68.42542 20.418791 68.42542 
z
" style="fill: #ffffff; opacity: 0.8; stroke: #cccccc; stroke-linejoin: miter"/>
    </g>
    <g id="PathCollection_2">
     <g>
      <use xlink:href="#mb821c38f4c" x="39.618791" y="31.01292" style="fill: #1f77b4; stroke: #1f77b4"/>
     </g>
    </g>
    <g id="text_1">
     <!-- Towns -->
     <g transform="translate(68.418791 35.21292) scale(0.16 -0.16)">
      <defs>
       <path id="DejaVuSans-54" d="M -19 4666 
L 3928 4666 
L 3928 4134 
L 2272 4134 
L 2272 0 
L 1638 0 
L 1638 4134 
L -19 4134 
L -19 4666 
z
" transform="scale(0.015625)"/>
       <path id="DejaVuSans-6f" d="M 1959 3097 
Q 1497 3097 1228 2736 
Q 959 2375 959 1747 
Q 959 1119 1226 758 
Q 1494 397 1959 397 
Q 2419 397 2687 759 
Q 2956 1122 2956 1747 
Q 2956 2369 2687 2733 
Q 2419 3097 1959 3097 
z
M 1959 3584 
Q 2709 3584 3137 3096 
Q 3566 2609 3566 1747 
Q 3566 888 3137 398 
Q 2709 -91 1959 -91 
Q 1206 -91 779 398 
Q 353 888 353 1747 
Q 353 2609 779 3096 
Q 1206 3584 1959 3584 
z
" transform="scale(0.015625)"/>
       <path id="DejaVuSans-77" d="M 269 3500 
L 844 3500 
L 1563 769 
L 2278 3500 
L 2956 3500 
L 3675 769 
L 4391 3500 
L 4966 3500 
L 4050 0 
L 3372 0 
L 2619 2869 
L 1863 0 
L 1184 0 
L 269 3500 
z
" transform="scale(0.015625)"/>
       <path id="DejaVuSans-6e" d="M 3513 2113 
L 3513 0 
L 2938 0 
L 2938 2094 
Q 2938 2591 2744 2837 
Q 2550 3084 2163 3084 
Q 1697 3084 1428 2787 
Q 1159 2491 1159 1978 
L 1159 0 
L 581 0 
L 581 3500 
L 1159 3500 
L 1159 2956 
Q 1366 3272 1645 3428 
Q 1925 3584 2291 3584 
Q 2894 3584 3203 3211 
Q 3513 2838 3513 2113 
z
" transform="scale(0.015625)"/>
       <path id="DejaVuSans-73" d="M 2834 3397 
L 2834 2853 
Q 2591 2978 2328 3040 
Q 2066 3103 1784 3103 
Q 1356 3103 1142 2972 
Q 928 2841 928 2578 
Q 928 2378 1081 2264 
Q 1234 2150 1697 2047 
L 1894 2003 
Q 2506 1872 2764 1633 
Q 3022 1394 3022 966 
Q 3022 478 2636 193 
Q 2250 -91 1575 -91 
Q 1294 -91 989 -36 
Q 684 19 347 128 
L 347 722 
Q 666 556 975 473 
Q 1284 391 1588 391 
Q 1994 391 2212 530 
Q 2431 669 2431 922 
Q 2431 1156 2273 1281 
Q 2116 1406 1581 1522 
L 1381 1569 
Q 847 1681 609 1914 
Q 372 2147 372 2553 
Q 372 3047 722 3315 
Q 1072 3584 1716 3584 
Q 2034 3584 2315 3537 
Q 2597 3491 2834 3397 
z
" transform="scale(0.015625)"/>
      </defs>
      <use xlink:href="#DejaVuSans-54"/>
      <use xlink:href="#DejaVuSans-6f" transform="translate(44.083984 0)"/>
      <use xlink:href="#DejaVuSans-77" transform="translate(105.265625 0)"/>
      <use xlink:href="#DejaVuSans-6e" transform="translate(187.052734 0)"/>
      <use xlink:href="#DejaVuSans-73" transform="translate(250.431641 0)"/>
     </g>
    </g>
    <g id="line2d_2">
     <path d="M 23.618791 53.09792 
L 39.618791 53.09792 
L 55.618791 53.09792 
" style="fill: none; stroke: #000000; stroke-width: 1.5; stroke-linecap: square"/>
    </g>
    <g id="text_2">
     <!-- Path -->
     <g transform="translate(68.418791 58.69792) scale(0.16 -0.16)">
      <defs>
       <path id="DejaVuSans-50" d="M 1259 4147 
L 1259 2394 
L 2053 2394 
Q 2494 2394 2734 2622 
Q 2975 2850 2975 3272 
Q 2975 3691 2734 3919 
Q 2494 4147 2053 4147 
L 1259 4147 
z
M 628 4666 
L 2053 4666 
Q 2838 4666 3239 4311 
Q 3641 3956 3641 3272 
Q 3641 2581 3239 2228 
Q 2838 1875 2053 1875 
L 1259 1875 
L 1259 0 
L 628 0 
L 628 4666 
z
" transform="scale(0.015625)"/>
       <path id="DejaVuSans-61" d="M 2194 1759 
Q 1497 1759 1228 1600 
Q 959 1441 959 1056 
Q 959 750 1161 570 
Q 1363 391 1709 391 
Q 2188 391 2477 730 
Q 2766 1069 2766 1631 
L 2766 1759 
L 2194 1759 
z
M 3341 1997 
L 3341 0 
L 2766 0 
L 2766 531 
Q 2569 213 2275 61 
Q 1981 -91 1556 -91 
Q 1019 -91 701 211 
Q 384 513 384 1019 
Q 384 1609 779 1909 
Q 1175 2209 1959 2209 
L 2766 2209 
L 2766 2266 
Q 2766 2663 2505 2880 
Q 2244 3097 1772 3097 
Q 1472 3097 1187 3025 
Q 903 2953 641 2809 
L 641 3341 
Q 956 3463 1253 3523 
Q 1550 3584 1831 3584 
Q 2591 3584 2966 3190 
Q 3341 2797 3341 1997 
z
" transform="scale(0.015625)"/>
       <path id="DejaVuSans-74" d="M 1172 4494 
L 1172 3500 
L 2356 3500 
L 2356 3053 
L 1172 3053 
L 1172 1153 
Q 1172 725 1289 603 
Q 1406 481 1766 481 
L 2356 481 
L 2356 0 
L 1766 0 
Q 1100 0 847 248 
Q 594 497 594 1153 
L 594 3053 
L 172 3053 
L 172 3500 
L 594 3500 
L 594 4494 
L 1172 4494 
z
" transform="scale(0.015625)"/>
       <path id="DejaVuSans-68" d="M 3513 2113 
L 3513 0 
L 2938 0 
L 2938 2094 
Q 2938 2591 2744 2837 
Q 2550 3084 2163 3084 
Q 1697 3084 1428 2787 
Q 1159 2491 1159 1978 
L 1159 0 
L 581 0 
L 581 4863 
L 1159 4863 
L 1159 2956 
Q 1366 3272 1645 3428 
Q 1925 3584 2291 3584 
Q 2894 3584 3203 3211 
Q 3513 2838 3513 2113 
z
" transform="scale(0.015625)"/>
      </defs>
      <use xlink:href="#DejaVuSans-50"/>
      <use xlink:href="#DejaVuSans-61" transform="translate(55.802734 0)"/>
      <use xlink:href="#DejaVuSans-74" transform="translate(117.082031 0)"/>
      <use xlink:href="#DejaVuSans-68" transform="translate(156.291016 0)"/>
     </g>
    </g>
   </g>
  </g>
 </g>
 <defs>
  <clipPath id="pf38e368901">
   <rect x="9.218791" y="8.65542" width="596.148487" height="307.267427"/>
  </clipPath>
 </defs>
</svg>
