<?xml version="1.0" encoding="utf-8" standalone="no"?>
<!DOCTYPE svg PUBLIC "-//W3C//DTD SVG 1.1//EN"
  "http://www.w3.org/Graphics/SVG/1.1/DTD/svg11.dtd">
<svg xmlns:xlink="http://www.w3.org/1999/xlink" width="576pt" height="360pt" viewBox="0 0 576 360" xmlns="http://www.w3.org/2000/svg" version="1.1">
 <metadata>
  <rdf:RDF xmlns:dc="http://purl.org/dc/elements/1.1/" xmlns:cc="http://creativecommons.org/ns#" xmlns:rdf="http://www.w3.org/1999/02/22-rdf-syntax-ns#">
   <cc:Work>
    <dc:type rdf:resource="http://purl.org/dc/dcmitype/StillImage"/>
    <dc:date>2025-02-13T11:19:56.099378</dc:date>
    <dc:format>image/svg+xml</dc:format>
    <dc:creator>
     <cc:Agent>
      <dc:title>Matplotlib v3.10.0, https://matplotlib.org/</dc:title>
     </cc:Agent>
    </dc:creator>
   </cc:Work>
  </rdf:RDF>
 </metadata>
 <defs>
  <style type="text/css">*{stroke-linejoin: round; stroke-linecap: butt}</style>
 </defs>
 <g id="figure_1">
  <g id="patch_1">
   <path d="M 0 360 
L 576 360 
L 576 0 
L 0 0 
z
" style="fill: #ffffff"/>
  </g>
  <g id="axes_1">
   <g id="patch_2">
    <path d="M 63.16 319.88 
L 554.510817 319.88 
L 554.510817 17.28 
L 63.16 17.28 
z
" style="fill: #ffffff"/>
   </g>
   <g id="PathCollection_1">
    <defs>
     <path id="mb313d6a639" d="M 0 3 
C 0.795609 3 1.55874 2.683901 2.12132 2.12132 
C 2.683901 1.55874 3 0.795609 3 0 
C 3 -0.795609 2.683901 -1.55874 2.12132 -2.12132 
C 1.55874 -2.683901 0.795609 -3 0 -3 
C -0.795609 -3 -1.55874 -2.683901 -2.12132 -2.12132 
C -2.683901 -1.55874 -3 -0.795609 -3 0 
C -3 0.795609 -2.683901 1.55874 -2.12132 2.12132 
C -1.55874 2.683901 -0.795609 3 0 3 
z
" style="stroke: #ffffff"/>
    </defs>
    <g clip-path="url(#pd8ad71afb0)">
     <use xlink:href="#mb313d6a639" x="143.072382" y="210.677983" style="fill: #ff0000; stroke: #ffffff"/>
     <use xlink:href="#mb313d6a639" x="253.277595" y="214.954732" style="fill: #ff0000; stroke: #ffffff"/>
     <use xlink:href="#mb313d6a639" x="332.513797" y="130.368738" style="fill: #ff0000; stroke: #ffffff"/>
     <use xlink:href="#mb313d6a639" x="170.26736" y="254.678842" style="fill: #ff0000; stroke: #ffffff"/>
     <use xlink:href="#mb313d6a639" x="270.54655" y="239.362873" style="fill: #ff0000; stroke: #ffffff"/>
     <use xlink:href="#mb313d6a639" x="344.249405" y="199.091068" style="fill: #ff0000; stroke: #ffffff"/>
     <use xlink:href="#mb313d6a639" x="237.532674" y="146.797457" style="fill: #ff0000; stroke: #ffffff"/>
     <use xlink:href="#mb313d6a639" x="269.43952" y="128.358086" style="fill: #ff0000; stroke: #ffffff"/>
     <use xlink:href="#mb313d6a639" x="308.912641" y="193.734502" style="fill: #ff0000; stroke: #ffffff"/>
     <use xlink:href="#mb313d6a639" x="85.494128" y="93.525094" style="fill: #ff0000; stroke: #ffffff"/>
     <use xlink:href="#mb313d6a639" x="297.06686" y="233.211592" style="fill: #ff0000; stroke: #ffffff"/>
     <use xlink:href="#mb313d6a639" x="339.811707" y="176.342576" style="fill: #ff0000; stroke: #ffffff"/>
     <use xlink:href="#mb313d6a639" x="194.922578" y="239.216121" style="fill: #ff0000; stroke: #ffffff"/>
     <use xlink:href="#mb313d6a639" x="362.198573" y="224.25039" style="fill: #ff0000; stroke: #ffffff"/>
     <use xlink:href="#mb313d6a639" x="180.696667" y="206.433863" style="fill: #ff0000; stroke: #ffffff"/>
     <use xlink:href="#mb313d6a639" x="320.064083" y="124.746355" style="fill: #ff0000; stroke: #ffffff"/>
     <use xlink:href="#mb313d6a639" x="366.793328" y="59.227776" style="fill: #ff0000; stroke: #ffffff"/>
     <use xlink:href="#mb313d6a639" x="225.868916" y="77.257571" style="fill: #ff0000; stroke: #ffffff"/>
     <use xlink:href="#mb313d6a639" x="227.820772" y="217.321003" style="fill: #ff0000; stroke: #ffffff"/>
     <use xlink:href="#mb313d6a639" x="249.121091" y="175.412364" style="fill: #ff0000; stroke: #ffffff"/>
     <use xlink:href="#mb313d6a639" x="214.9802" y="163.684094" style="fill: #ff0000; stroke: #ffffff"/>
    </g>
   </g>
   <g id="PathCollection_2">
    <defs>
     <path id="m1d33e20676" d="M 0 3 
C 0.795609 3 1.55874 2.683901 2.12132 2.12132 
C 2.683901 1.55874 3 0.795609 3 0 
C 3 -0.795609 2.683901 -1.55874 2.12132 -2.12132 
C 1.55874 -2.683901 0.795609 -3 0 -3 
C -0.795609 -3 -1.55874 -2.683901 -2.12132 -2.12132 
C -2.683901 -1.55874 -3 -0.795609 -3 0 
C -3 0.795609 -2.683901 1.55874 -2.12132 2.12132 
C -1.55874 2.683901 -0.795609 3 0 3 
z
" style="stroke: #ffffff"/>
    </defs>
    <g clip-path="url(#pd8ad71afb0)">
     <use xlink:href="#m1d33e20676" x="439.797271" y="164.541717" style="fill: #0000ff; stroke: #ffffff"/>
     <use xlink:href="#m1d33e20676" x="507.123351" y="146.66232" style="fill: #0000ff; stroke: #ffffff"/>
     <use xlink:href="#m1d33e20676" x="399.438319" y="306.125455" style="fill: #0000ff; stroke: #ffffff"/>
     <use xlink:href="#m1d33e20676" x="390.982848" y="31.034545" style="fill: #0000ff; stroke: #ffffff"/>
     <use xlink:href="#m1d33e20676" x="484.516505" y="120.72536" style="fill: #0000ff; stroke: #ffffff"/>
     <use xlink:href="#m1d33e20676" x="380.560379" y="151.564385" style="fill: #0000ff; stroke: #ffffff"/>
     <use xlink:href="#m1d33e20676" x="460.437833" y="220.265005" style="fill: #0000ff; stroke: #ffffff"/>
     <use xlink:href="#m1d33e20676" x="432.396022" y="203.106307" style="fill: #0000ff; stroke: #ffffff"/>
     <use xlink:href="#m1d33e20676" x="415.257913" y="300.128541" style="fill: #0000ff; stroke: #ffffff"/>
     <use xlink:href="#m1d33e20676" x="475.561401" y="64.251322" style="fill: #0000ff; stroke: #ffffff"/>
     <use xlink:href="#m1d33e20676" x="431.182891" y="220.322147" style="fill: #0000ff; stroke: #ffffff"/>
     <use xlink:href="#m1d33e20676" x="415.545466" y="181.779916" style="fill: #0000ff; stroke: #ffffff"/>
     <use xlink:href="#m1d33e20676" x="482.067118" y="153.67159" style="fill: #0000ff; stroke: #ffffff"/>
     <use xlink:href="#m1d33e20676" x="532.176689" y="61.372516" style="fill: #0000ff; stroke: #ffffff"/>
     <use xlink:href="#m1d33e20676" x="458.930323" y="255.622017" style="fill: #0000ff; stroke: #ffffff"/>
     <use xlink:href="#m1d33e20676" x="422.941532" y="150.291792" style="fill: #0000ff; stroke: #ffffff"/>
     <use xlink:href="#m1d33e20676" x="450.236183" y="159.885317" style="fill: #0000ff; stroke: #ffffff"/>
     <use xlink:href="#m1d33e20676" x="439.617621" y="254.732885" style="fill: #0000ff; stroke: #ffffff"/>
     <use xlink:href="#m1d33e20676" x="449.865069" y="153.835368" style="fill: #0000ff; stroke: #ffffff"/>
     <use xlink:href="#m1d33e20676" x="470.630977" y="186.061033" style="fill: #0000ff; stroke: #ffffff"/>
     <use xlink:href="#m1d33e20676" x="418.892263" y="274.929799" style="fill: #0000ff; stroke: #ffffff"/>
     <use xlink:href="#m1d33e20676" x="496.700298" y="163.815062" style="fill: #0000ff; stroke: #ffffff"/>
     <use xlink:href="#m1d33e20676" x="466.511388" y="97.798132" style="fill: #0000ff; stroke: #ffffff"/>
     <use xlink:href="#m1d33e20676" x="477.899201" y="172.872725" style="fill: #0000ff; stroke: #ffffff"/>
     <use xlink:href="#m1d33e20676" x="436.148125" y="135.456248" style="fill: #0000ff; stroke: #ffffff"/>
     <use xlink:href="#m1d33e20676" x="439.231808" y="159.443421" style="fill: #0000ff; stroke: #ffffff"/>
     <use xlink:href="#m1d33e20676" x="379.503082" y="207.777711" style="fill: #0000ff; stroke: #ffffff"/>
     <use xlink:href="#m1d33e20676" x="456.502197" y="259.259056" style="fill: #0000ff; stroke: #ffffff"/>
     <use xlink:href="#m1d33e20676" x="483.974624" y="153.097182" style="fill: #0000ff; stroke: #ffffff"/>
    </g>
   </g>
   <g id="matplotlib.axis_1">
    <g id="xtick_1">
     <g id="line2d_1">
      <defs>
       <path id="m183a1b4db1" d="M 0 0 
L 0 3.5 
" style="stroke: #000000; stroke-width: 0.8"/>
      </defs>
      <g>
       <use xlink:href="#m183a1b4db1" x="64.305823" y="319.88" style="stroke: #000000; stroke-width: 0.8"/>
      </g>
     </g>
     <g id="text_1">
      <!-- −3 -->
      <g transform="translate(52.512073 339.0375) scale(0.16 -0.16)">
       <defs>
        <path id="DejaVuSans-2212" d="M 678 2272 
L 4684 2272 
L 4684 1741 
L 678 1741 
L 678 2272 
z
" transform="scale(0.015625)"/>
        <path id="DejaVuSans-33" d="M 2597 2516 
Q 3050 2419 3304 2112 
Q 3559 1806 3559 1356 
Q 3559 666 3084 287 
Q 2609 -91 1734 -91 
Q 1441 -91 1130 -33 
Q 819 25 488 141 
L 488 750 
Q 750 597 1062 519 
Q 1375 441 1716 441 
Q 2309 441 2620 675 
Q 2931 909 2931 1356 
Q 2931 1769 2642 2001 
Q 2353 2234 1838 2234 
L 1294 2234 
L 1294 2753 
L 1863 2753 
Q 2328 2753 2575 2939 
Q 2822 3125 2822 3475 
Q 2822 3834 2567 4026 
Q 2313 4219 1838 4219 
Q 1578 4219 1281 4162 
Q 984 4106 628 3988 
L 628 4550 
Q 988 4650 1302 4700 
Q 1616 4750 1894 4750 
Q 2613 4750 3031 4423 
Q 3450 4097 3450 3541 
Q 3450 3153 3228 2886 
Q 3006 2619 2597 2516 
z
" transform="scale(0.015625)"/>
       </defs>
       <use xlink:href="#DejaVuSans-2212"/>
       <use xlink:href="#DejaVuSans-33" transform="translate(83.789062 0)"/>
      </g>
     </g>
    </g>
    <g id="xtick_2">
     <g id="line2d_2">
      <g>
       <use xlink:href="#m183a1b4db1" x="162.15402" y="319.88" style="stroke: #000000; stroke-width: 0.8"/>
      </g>
     </g>
     <g id="text_2">
      <!-- −2 -->
      <g transform="translate(150.36027 339.0375) scale(0.16 -0.16)">
       <defs>
        <path id="DejaVuSans-32" d="M 1228 531 
L 3431 531 
L 3431 0 
L 469 0 
L 469 531 
Q 828 903 1448 1529 
Q 2069 2156 2228 2338 
Q 2531 2678 2651 2914 
Q 2772 3150 2772 3378 
Q 2772 3750 2511 3984 
Q 2250 4219 1831 4219 
Q 1534 4219 1204 4116 
Q 875 4013 500 3803 
L 500 4441 
Q 881 4594 1212 4672 
Q 1544 4750 1819 4750 
Q 2544 4750 2975 4387 
Q 3406 4025 3406 3419 
Q 3406 3131 3298 2873 
Q 3191 2616 2906 2266 
Q 2828 2175 2409 1742 
Q 1991 1309 1228 531 
z
" transform="scale(0.015625)"/>
       </defs>
       <use xlink:href="#DejaVuSans-2212"/>
       <use xlink:href="#DejaVuSans-32" transform="translate(83.789062 0)"/>
      </g>
     </g>
    </g>
    <g id="xtick_3">
     <g id="line2d_3">
      <g>
       <use xlink:href="#m183a1b4db1" x="260.002217" y="319.88" style="stroke: #000000; stroke-width: 0.8"/>
      </g>
     </g>
     <g id="text_3">
      <!-- −1 -->
      <g transform="translate(248.208467 339.0375) scale(0.16 -0.16)">
       <defs>
        <path id="DejaVuSans-31" d="M 794 531 
L 1825 531 
L 1825 4091 
L 703 3866 
L 703 4441 
L 1819 4666 
L 2450 4666 
L 2450 531 
L 3481 531 
L 3481 0 
L 794 0 
L 794 531 
z
" transform="scale(0.015625)"/>
       </defs>
       <use xlink:href="#DejaVuSans-2212"/>
       <use xlink:href="#DejaVuSans-31" transform="translate(83.789062 0)"/>
      </g>
     </g>
    </g>
    <g id="xtick_4">
     <g id="line2d_4">
      <g>
       <use xlink:href="#m183a1b4db1" x="357.850414" y="319.88" style="stroke: #000000; stroke-width: 0.8"/>
      </g>
     </g>
     <g id="text_4">
      <!-- 0 -->
      <g transform="translate(352.760414 339.0375) scale(0.16 -0.16)">
       <defs>
        <path id="DejaVuSans-30" d="M 2034 4250 
Q 1547 4250 1301 3770 
Q 1056 3291 1056 2328 
Q 1056 1369 1301 889 
Q 1547 409 2034 409 
Q 2525 409 2770 889 
Q 3016 1369 3016 2328 
Q 3016 3291 2770 3770 
Q 2525 4250 2034 4250 
z
M 2034 4750 
Q 2819 4750 3233 4129 
Q 3647 3509 3647 2328 
Q 3647 1150 3233 529 
Q 2819 -91 2034 -91 
Q 1250 -91 836 529 
Q 422 1150 422 2328 
Q 422 3509 836 4129 
Q 1250 4750 2034 4750 
z
" transform="scale(0.015625)"/>
       </defs>
       <use xlink:href="#DejaVuSans-30"/>
      </g>
     </g>
    </g>
    <g id="xtick_5">
     <g id="line2d_5">
      <g>
       <use xlink:href="#m183a1b4db1" x="455.698611" y="319.88" style="stroke: #000000; stroke-width: 0.8"/>
      </g>
     </g>
     <g id="text_5">
      <!-- 1 -->
      <g transform="translate(450.608611 339.0375) scale(0.16 -0.16)">
       <use xlink:href="#DejaVuSans-31"/>
      </g>
     </g>
    </g>
    <g id="xtick_6">
     <g id="line2d_6">
      <g>
       <use xlink:href="#m183a1b4db1" x="553.546809" y="319.88" style="stroke: #000000; stroke-width: 0.8"/>
      </g>
     </g>
     <g id="text_6">
      <!-- 2 -->
      <g transform="translate(548.456809 339.0375) scale(0.16 -0.16)">
       <use xlink:href="#DejaVuSans-32"/>
      </g>
     </g>
    </g>
   </g>
   <g id="matplotlib.axis_2">
    <g id="ytick_1">
     <g id="line2d_7">
      <defs>
       <path id="md56a74c9f8" d="M 0 0 
L -3.5 0 
" style="stroke: #000000; stroke-width: 0.8"/>
      </defs>
      <g>
       <use xlink:href="#md56a74c9f8" x="63.16" y="284.791909" style="stroke: #000000; stroke-width: 0.8"/>
      </g>
     </g>
     <g id="text_7">
      <!-- −0.5 -->
      <g transform="translate(17.3075 290.870659) scale(0.16 -0.16)">
       <defs>
        <path id="DejaVuSans-2e" d="M 684 794 
L 1344 794 
L 1344 0 
L 684 0 
L 684 794 
z
" transform="scale(0.015625)"/>
        <path id="DejaVuSans-35" d="M 691 4666 
L 3169 4666 
L 3169 4134 
L 1269 4134 
L 1269 2991 
Q 1406 3038 1543 3061 
Q 1681 3084 1819 3084 
Q 2600 3084 3056 2656 
Q 3513 2228 3513 1497 
Q 3513 744 3044 326 
Q 2575 -91 1722 -91 
Q 1428 -91 1123 -41 
Q 819 9 494 109 
L 494 744 
Q 775 591 1075 516 
Q 1375 441 1709 441 
Q 2250 441 2565 725 
Q 2881 1009 2881 1497 
Q 2881 1984 2565 2268 
Q 2250 2553 1709 2553 
Q 1456 2553 1204 2497 
Q 953 2441 691 2322 
L 691 4666 
z
" transform="scale(0.015625)"/>
       </defs>
       <use xlink:href="#DejaVuSans-2212"/>
       <use xlink:href="#DejaVuSans-30" transform="translate(83.789062 0)"/>
       <use xlink:href="#DejaVuSans-2e" transform="translate(147.412109 0)"/>
       <use xlink:href="#DejaVuSans-35" transform="translate(179.199219 0)"/>
      </g>
     </g>
    </g>
    <g id="ytick_2">
     <g id="line2d_8">
      <g>
       <use xlink:href="#md56a74c9f8" x="63.16" y="245.384129" style="stroke: #000000; stroke-width: 0.8"/>
      </g>
     </g>
     <g id="text_8">
      <!-- 0.0 -->
      <g transform="translate(30.715 251.462879) scale(0.16 -0.16)">
       <use xlink:href="#DejaVuSans-30"/>
       <use xlink:href="#DejaVuSans-2e" transform="translate(63.623047 0)"/>
       <use xlink:href="#DejaVuSans-30" transform="translate(95.410156 0)"/>
      </g>
     </g>
    </g>
    <g id="ytick_3">
     <g id="line2d_9">
      <g>
       <use xlink:href="#md56a74c9f8" x="63.16" y="205.976349" style="stroke: #000000; stroke-width: 0.8"/>
      </g>
     </g>
     <g id="text_9">
      <!-- 0.5 -->
      <g transform="translate(30.715 212.055099) scale(0.16 -0.16)">
       <use xlink:href="#DejaVuSans-30"/>
       <use xlink:href="#DejaVuSans-2e" transform="translate(63.623047 0)"/>
       <use xlink:href="#DejaVuSans-35" transform="translate(95.410156 0)"/>
      </g>
     </g>
    </g>
    <g id="ytick_4">
     <g id="line2d_10">
      <g>
       <use xlink:href="#md56a74c9f8" x="63.16" y="166.56857" style="stroke: #000000; stroke-width: 0.8"/>
      </g>
     </g>
     <g id="text_10">
      <!-- 1.0 -->
      <g transform="translate(30.715 172.64732) scale(0.16 -0.16)">
       <use xlink:href="#DejaVuSans-31"/>
       <use xlink:href="#DejaVuSans-2e" transform="translate(63.623047 0)"/>
       <use xlink:href="#DejaVuSans-30" transform="translate(95.410156 0)"/>
      </g>
     </g>
    </g>
    <g id="ytick_5">
     <g id="line2d_11">
      <g>
       <use xlink:href="#md56a74c9f8" x="63.16" y="127.16079" style="stroke: #000000; stroke-width: 0.8"/>
      </g>
     </g>
     <g id="text_11">
      <!-- 1.5 -->
      <g transform="translate(30.715 133.23954) scale(0.16 -0.16)">
       <use xlink:href="#DejaVuSans-31"/>
       <use xlink:href="#DejaVuSans-2e" transform="translate(63.623047 0)"/>
       <use xlink:href="#DejaVuSans-35" transform="translate(95.410156 0)"/>
      </g>
     </g>
    </g>
    <g id="ytick_6">
     <g id="line2d_12">
      <g>
       <use xlink:href="#md56a74c9f8" x="63.16" y="87.753011" style="stroke: #000000; stroke-width: 0.8"/>
      </g>
     </g>
     <g id="text_12">
      <!-- 2.0 -->
      <g transform="translate(30.715 93.831761) scale(0.16 -0.16)">
       <use xlink:href="#DejaVuSans-32"/>
       <use xlink:href="#DejaVuSans-2e" transform="translate(63.623047 0)"/>
       <use xlink:href="#DejaVuSans-30" transform="translate(95.410156 0)"/>
      </g>
     </g>
    </g>
    <g id="ytick_7">
     <g id="line2d_13">
      <g>
       <use xlink:href="#md56a74c9f8" x="63.16" y="48.345231" style="stroke: #000000; stroke-width: 0.8"/>
      </g>
     </g>
     <g id="text_13">
      <!-- 2.5 -->
      <g transform="translate(30.715 54.423981) scale(0.16 -0.16)">
       <use xlink:href="#DejaVuSans-32"/>
       <use xlink:href="#DejaVuSans-2e" transform="translate(63.623047 0)"/>
       <use xlink:href="#DejaVuSans-35" transform="translate(95.410156 0)"/>
      </g>
     </g>
    </g>
   </g>
   <g id="patch_3">
    <path d="M 63.16 319.88 
L 63.16 17.28 
" style="fill: none; stroke: #000000; stroke-width: 0.8; stroke-linejoin: miter; stroke-linecap: square"/>
   </g>
   <g id="patch_4">
    <path d="M 554.510817 319.88 
L 554.510817 17.28 
" style="fill: none; stroke: #000000; stroke-width: 0.8; stroke-linejoin: miter; stroke-linecap: square"/>
   </g>
   <g id="patch_5">
    <path d="M 63.16 319.88 
L 554.510817 319.88 
" style="fill: none; stroke: #000000; stroke-width: 0.8; stroke-linejoin: miter; stroke-linecap: square"/>
   </g>
   <g id="patch_6">
    <path d="M 63.16 17.28 
L 554.510817 17.28 
" style="fill: none; stroke: #000000; stroke-width: 0.8; stroke-linejoin: miter; stroke-linecap: square"/>
   </g>
  </g>
 </g>
 <defs>
  <clipPath id="pd8ad71afb0">
   <rect x="63.16" y="17.28" width="491.350817" height="302.6"/>
  </clipPath>
 </defs>
</svg>
